<svg width="71" height="71" viewBox="0 0 71 71" fill="none" xmlns="http://www.w3.org/2000/svg">
<path d="M71 11.0938C71 4.96684 66.0332 0 59.9062 0H11.0938C4.96684 0 0 4.96684 0 11.0938V59.9062C0 66.0332 4.96684 71 11.0938 71H59.9062C66.0332 71 71 66.0332 71 59.9062V11.0938Z" fill="#7289DA"/>
<path d="M32.2873 34.861C31.2755 34.861 30.4768 35.7485 30.4768 36.8312C30.4768 37.914 31.2933 38.8015 32.2873 38.8015C33.299 38.8015 34.0978 37.914 34.0978 36.8312C34.1155 35.7485 33.299 34.861 32.2873 34.861ZM38.766 34.861C37.7543 34.861 36.9555 35.7485 36.9555 36.8312C36.9555 37.914 37.772 38.8015 38.766 38.8015C39.7778 38.8015 40.5765 37.914 40.5765 36.8312C40.5765 35.7485 39.7778 34.861 38.766 34.861Z" fill="white"/>
<path d="M47.3925 19.9688H23.6075C21.6017 19.9688 19.9688 21.6017 19.9688 23.6252V47.6232C19.9688 49.6467 21.6017 51.2797 23.6075 51.2797H43.736L42.7952 47.996L45.0672 50.1082L47.215 52.0962L51.0312 55.4688V23.6252C51.0312 21.6017 49.3982 19.9688 47.3925 19.9688ZM40.541 43.1502C40.541 43.1502 39.902 42.387 39.3695 41.7125C41.6947 41.0557 42.5822 39.6003 42.5822 39.6003C41.8545 40.0795 41.1622 40.4167 40.541 40.6475C39.6535 41.0202 38.8015 41.2687 37.9672 41.4107C36.2632 41.7302 34.7012 41.6415 33.37 41.393C32.3582 41.1977 31.4885 40.9137 30.7607 40.6297C30.3525 40.47 29.9087 40.2747 29.465 40.0262C29.4117 39.9907 29.3585 39.973 29.3052 39.9375C29.2697 39.9198 29.252 39.902 29.2342 39.8842C28.9147 39.7067 28.7373 39.5825 28.7373 39.5825C28.7373 39.5825 29.5892 41.0025 31.8435 41.677C31.311 42.3515 30.6542 43.1502 30.6542 43.1502C26.7315 43.026 25.2405 40.4522 25.2405 40.4522C25.2405 34.7367 27.7965 30.104 27.7965 30.104C30.3525 28.187 32.7842 28.2402 32.7842 28.2402L32.9617 28.4532C29.7667 29.3763 28.2935 30.7785 28.2935 30.7785C28.2935 30.7785 28.684 30.5655 29.3408 30.2638C31.24 29.4295 32.7487 29.1987 33.37 29.1455C33.4765 29.1277 33.5652 29.11 33.6717 29.11C34.7545 28.968 35.9792 28.9325 37.2572 29.0745C38.9435 29.2698 40.754 29.7668 42.6 30.7785C42.6 30.7785 41.1978 29.4472 38.1803 28.5242L38.4287 28.2402C38.4287 28.2402 40.8605 28.187 43.4165 30.104C43.4165 30.104 45.9725 34.7367 45.9725 40.4522C45.9725 40.4522 44.4637 43.026 40.541 43.1502Z" fill="white"/>
</svg>
