<svg width="71" height="71" viewBox="0 0 71 71" fill="none" xmlns="http://www.w3.org/2000/svg">
<path d="M59.9062 0H11.0938C4.96684 0 0 4.96684 0 11.0938V59.9062C0 66.0332 4.96684 71 11.0938 71H59.9062C66.0332 71 71 66.0332 71 59.9062V11.0938C71 4.96684 66.0332 0 59.9062 0Z" fill="#2867B2"/>
<path d="M25.7375 53.25H18.1937V29.5094H25.7375V53.25ZM21.9656 26.1813C19.525 26.1813 17.75 24.4062 17.75 21.9656C17.75 19.525 19.7469 17.75 21.9656 17.75C24.4063 17.75 26.1813 19.525 26.1813 21.9656C26.1813 24.4062 24.4063 26.1813 21.9656 26.1813ZM53.25 53.25H45.7063V40.3813C45.7063 36.6094 44.1531 35.5 41.9344 35.5C39.7156 35.5 37.4969 37.275 37.4969 40.6031V53.25H29.9531V29.5094H37.0531V32.8375C37.7187 31.2844 40.3812 28.8438 44.1531 28.8438C48.3687 28.8438 52.8063 31.2844 52.8063 38.6062V53.25H53.25Z" fill="white"/>
</svg>
