<svg width="71" height="71" viewBox="0 0 71 71" fill="none" xmlns="http://www.w3.org/2000/svg">
<path d="M71 11.0938C71 4.96684 66.0332 0 59.9062 0H11.0938C4.96684 0 0 4.96684 0 11.0938V59.9062C0 66.0332 4.96684 71 11.0938 71H59.9062C66.0332 71 71 66.0332 71 59.9062V11.0938Z" fill="white"/>
<path fill-rule="evenodd" clip-rule="evenodd" d="M52.8726 35.9031C52.8726 34.6445 52.7596 33.4343 52.5498 32.2725H35.8325V39.1385H45.3853C44.9738 41.3573 43.7232 43.2371 41.8433 44.4958V48.9494H47.5798C50.9362 45.8593 52.8726 41.3088 52.8726 35.9031Z" fill="#4285F4"/>
<path fill-rule="evenodd" clip-rule="evenodd" d="M35.8318 53.2501C40.6243 53.2501 44.6423 51.6607 47.5791 48.9497L41.8426 44.4961C40.2532 45.5611 38.22 46.1904 35.8318 46.1904C31.2087 46.1904 27.2957 43.068 25.8999 38.8726H19.9697V43.4714C22.8904 49.2725 28.8932 53.2501 35.8318 53.2501Z" fill="#34A853"/>
<path fill-rule="evenodd" clip-rule="evenodd" d="M25.9006 38.8722C25.5456 37.8072 25.3439 36.6696 25.3439 35.4997C25.3439 34.3298 25.5456 33.1922 25.9006 32.1272V27.5283H19.9705C18.7683 29.9246 18.0825 32.6355 18.0825 35.4997C18.0825 38.3639 18.7683 41.0748 19.9705 43.4711L25.9006 38.8722Z" fill="#FBBC05"/>
<path fill-rule="evenodd" clip-rule="evenodd" d="M35.8318 24.8097C38.4378 24.8097 40.7776 25.7052 42.6172 27.4641L47.7082 22.3731C44.6342 19.5089 40.6162 17.75 35.8318 17.75C28.8932 17.75 22.8904 21.7276 19.9697 27.5287L25.8999 32.1275C27.2957 27.9321 31.2087 24.8097 35.8318 24.8097Z" fill="#EA4335"/>
</svg>
